<svg width="304.664990234375px" height="88.425048828125px" xmlns="http://www.w3.org/2000/svg" viewBox="97.6675048828125 30.7874755859375 304.664990234375 88.425048828125" style="background: none;" preserveAspectRatio="xMidYMid"><defs><filter id="editing-hole" x="-100%" y="-100%" width="300%" height="300%"><feFlood flood-color="none" result="black"></feFlood><feMorphology operator="dilate" radius="2" in="SourceGraphic" result="erode"></feMorphology><feGaussianBlur in="erode" stdDeviation="4" result="blur"></feGaussianBlur><feOffset in="blur" dx="2" dy="2" result="offset"></feOffset><feComposite operator="atop" in="offset" in2="black" result="merge"></feComposite><feComposite operator="in" in="merge" in2="SourceGraphic" result="inner-shadow"></feComposite></filter></defs><g filter="url(#editing-hole)"><g transform="translate(144.49999332427979, 95.02499961853027)"><path d="M3.04-1.04L3.04-1.04L3.04-28.28L3.04-28.28Q3.04-29.16 4.04-29.24L4.04-29.24L11.12-29.24L11.12-29.24Q15-29.24 17.38-27.40L17.38-27.40L17.38-27.40Q19.76-25.56 19.76-21.36L19.76-21.36L19.76-21.36Q19.76-14.72 13.52-13.64L13.52-13.64L19.68-1.80L19.68-1.80Q19.84-1.60 19.84-1.28L19.84-1.28L19.84-1.28Q19.84-0.76 19.36-0.34L19.36-0.34L19.36-0.34Q18.88 0.08 18.32 0.08L18.32 0.08L18.32 0.08Q17.60 0.08 16.92-1.32L16.92-1.32L10.76-13.32L5.68-13.32L5.68-1.04L5.68-1.04Q5.68-0.56 5.28-0.28L5.28-0.28L5.28-0.28Q4.88 0 4.36 0L4.36 0L4.36 0Q3.80 0 3.42-0.28L3.42-0.28L3.42-0.28Q3.04-0.56 3.04-1.04ZM5.68-26.80L5.68-15.60L11.12-15.60L11.12-15.60Q17.12-15.60 17.12-21.24L17.12-21.24L17.12-21.24Q17.12-26.80 11.12-26.80L11.12-26.80L5.68-26.80ZM23.16-7.24L23.16-7.24L23.16-17.92L23.16-17.92Q23.16-18.28 23.54-18.60L23.54-18.60L23.54-18.60Q23.92-18.92 24.48-18.92L24.48-18.92L24.48-18.92Q24.96-18.92 25.36-18.60L25.36-18.60L25.36-18.60Q25.76-18.28 25.76-17.92L25.76-17.92L25.76-7.24L25.76-7.24Q25.76-5.24 27.24-3.68L27.24-3.68L27.24-3.68Q28.72-2.12 30.76-2.12L30.76-2.12L30.76-2.12Q32.80-2.12 34.28-3.68L34.28-3.68L34.28-3.68Q35.76-5.24 35.76-7.24L35.76-7.24L35.76-17.96L35.76-17.96Q35.76-18.36 36.16-18.64L36.16-18.64L36.16-18.64Q36.56-18.92 37.08-18.92L37.08-18.92L37.08-18.92Q37.60-18.92 37.98-18.64L37.98-18.64L37.98-18.64Q38.36-18.36 38.36-17.96L38.36-17.96L38.36-7.24L38.36-7.24Q38.36-4.24 36.10-1.98L36.10-1.98L36.10-1.98Q33.84 0.28 30.76 0.28L30.76 0.28L30.76 0.28Q27.64 0.28 25.40-1.98L25.40-1.98L25.40-1.98Q23.16-4.24 23.16-7.24ZM43.20-1.04L43.20-1.04L43.20-17.96L43.20-17.96Q43.20-18.40 43.56-18.66L43.56-18.66L43.56-18.66Q43.92-18.92 44.48-18.92L44.48-18.92L44.48-18.92Q44.96-18.92 45.32-18.64L45.32-18.64L45.32-18.64Q45.68-18.36 45.68-17.96L45.68-17.96L45.68-16.12L45.68-16.12Q46.36-17.40 47.76-18.28L47.76-18.28L47.76-18.28Q49.16-19.16 51.04-19.16L51.04-19.16L51.04-19.16Q53.92-19.16 56.04-16.96L56.04-16.96L56.04-16.96Q58.16-14.76 58.16-11.68L58.16-11.68L58.16-1.04L58.16-1.04Q58.16-0.56 57.76-0.28L57.76-0.28L57.76-0.28Q57.36 0 56.84 0L56.84 0L56.84 0Q56.36 0 55.96-0.28L55.96-0.28L55.96-0.28Q55.56-0.56 55.56-1.04L55.56-1.04L55.56-11.68L55.56-11.68Q55.56-13.64 54.08-15.20L54.08-15.20L54.08-15.20Q52.60-16.76 50.56-16.76L50.56-16.76L50.56-16.76Q48.68-16.76 47.24-15.36L47.24-15.36L47.24-15.36Q45.80-13.96 45.80-11.68L45.80-11.68L45.80-1.04L45.80-1.04Q45.80-0.64 45.40-0.32L45.40-0.32L45.40-0.32Q45 0 44.48 0L44.48 0L44.48 0Q43.92 0 43.56-0.32L43.56-0.32L43.56-0.32Q43.20-0.64 43.20-1.04ZM63.04-1.04L63.04-1.04L63.04-17.96L63.04-17.96Q63.04-18.40 63.40-18.66L63.40-18.66L63.40-18.66Q63.76-18.92 64.32-18.92L64.32-18.92L64.32-18.92Q64.80-18.92 65.16-18.64L65.16-18.64L65.16-18.64Q65.52-18.36 65.52-17.96L65.52-17.96L65.52-16.12L65.52-16.12Q66.20-17.40 67.60-18.28L67.60-18.28L67.60-18.28Q69-19.16 70.88-19.16L70.88-19.16L70.88-19.16Q73.76-19.16 75.88-16.96L75.88-16.96L75.88-16.96Q78-14.76 78-11.68L78-11.68L78-1.04L78-1.04Q78-0.56 77.60-0.28L77.60-0.28L77.60-0.28Q77.20 0 76.68 0L76.68 0L76.68 0Q76.20 0 75.80-0.28L75.80-0.28L75.80-0.28Q75.40-0.56 75.40-1.04L75.40-1.04L75.40-11.68L75.40-11.68Q75.40-13.64 73.92-15.20L73.92-15.20L73.92-15.20Q72.44-16.76 70.40-16.76L70.40-16.76L70.40-16.76Q68.52-16.76 67.08-15.36L67.08-15.36L67.08-15.36Q65.64-13.96 65.64-11.68L65.64-11.68L65.64-1.04L65.64-1.04Q65.64-0.64 65.24-0.32L65.24-0.32L65.24-0.32Q64.84 0 64.32 0L64.32 0L64.32 0Q63.76 0 63.40-0.32L63.40-0.32L63.40-0.32Q63.04-0.64 63.04-1.04ZM82.88-25.02L82.88-25.02L82.88-25.02Q82.36-25.52 82.36-26.20L82.36-26.20L82.36-26.20Q82.36-26.88 82.88-27.36L82.88-27.36L82.88-27.36Q83.40-27.84 84.16-27.84L84.16-27.84L84.16-27.84Q84.88-27.84 85.38-27.36L85.38-27.36L85.38-27.36Q85.88-26.88 85.88-26.20L85.88-26.20L85.88-26.20Q85.88-25.52 85.38-25.02L85.38-25.02L85.38-25.02Q84.88-24.52 84.16-24.52L84.16-24.52L84.16-24.52Q83.40-24.52 82.88-25.02ZM82.88-1.04L82.88-1.04L82.88-17.96L82.88-17.96Q82.88-18.36 83.24-18.64L83.24-18.64L83.24-18.64Q83.60-18.92 84.16-18.92L84.16-18.92L84.16-18.92Q84.72-18.92 85.10-18.64L85.10-18.64L85.10-18.64Q85.48-18.36 85.48-17.96L85.48-17.96L85.48-1.04L85.48-1.04Q85.48-0.64 85.08-0.32L85.08-0.32L85.08-0.32Q84.68 0 84.16 0L84.16 0L84.16 0Q83.64 0 83.26-0.32L83.26-0.32L83.26-0.32Q82.88-0.64 82.88-1.04ZM90.52-1.04L90.52-1.04L90.52-17.96L90.52-17.96Q90.52-18.40 90.88-18.66L90.88-18.66L90.88-18.66Q91.24-18.92 91.80-18.92L91.80-18.92L91.80-18.92Q92.28-18.92 92.64-18.64L92.64-18.64L92.64-18.64Q93-18.36 93-17.96L93-17.96L93-16.12L93-16.12Q93.68-17.40 95.08-18.28L95.08-18.28L95.08-18.28Q96.48-19.16 98.36-19.16L98.36-19.16L98.36-19.16Q101.24-19.16 103.36-16.96L103.36-16.96L103.36-16.96Q105.48-14.76 105.48-11.68L105.48-11.68L105.48-1.04L105.48-1.04Q105.48-0.56 105.08-0.28L105.08-0.28L105.08-0.28Q104.68 0 104.16 0L104.16 0L104.16 0Q103.68 0 103.28-0.28L103.28-0.28L103.28-0.28Q102.88-0.56 102.88-1.04L102.88-1.04L102.88-11.68L102.88-11.68Q102.88-13.64 101.40-15.20L101.40-15.20L101.40-15.20Q99.92-16.76 97.88-16.76L97.88-16.76L97.88-16.76Q96-16.76 94.56-15.36L94.56-15.36L94.56-15.36Q93.12-13.96 93.12-11.68L93.12-11.68L93.12-1.04L93.12-1.04Q93.12-0.64 92.72-0.32L92.72-0.32L92.72-0.32Q92.32 0 91.80 0L91.80 0L91.80 0Q91.24 0 90.88-0.32L90.88-0.32L90.88-0.32Q90.52-0.64 90.52-1.04ZM108.84 3.96L108.84 3.96L108.84 3.96Q108.84 0.96 112.24-0.40L112.24-0.40L112.24-0.40Q110.04-1.16 110.04-3.16L110.04-3.16L110.04-3.16Q110.04-4.96 112.04-6.04L112.04-6.04L112.04-6.04Q109.84-7.88 109.84-11.08L109.84-11.08L109.84-12.60L109.84-12.60Q109.84-15.52 111.74-17.34L111.74-17.34L111.74-17.34Q113.64-19.16 116.72-19.16L116.72-19.16L116.72-19.16Q119.52-19.16 121.40-17.48L121.40-17.48L121.40-17.48Q122-18.64 122.76-19.32L122.76-19.32L122.76-19.32Q123.52-20 124.24-20L124.24-20L124.24-20Q124.80-20 125.12-19.68L125.12-19.68L125.12-19.68Q125.44-19.36 125.44-18.96L125.44-18.96L125.44-18.96Q125.44-18.24 124.76-18.08L124.76-18.08L124.76-18.08Q123.36-17.80 122.52-16.36L122.52-16.36L122.52-16.36Q123.64-14.88 123.64-12.60L123.64-12.60L123.64-11.08L123.64-11.08Q123.64-8.20 121.68-6.32L121.68-6.32L121.68-6.32Q119.72-4.44 116.68-4.44L116.68-4.44L116.68-4.44Q115.04-4.44 113.60-5.12L113.60-5.12L113.60-5.12Q112.36-4.44 112.36-3.56L112.36-3.56L112.36-3.56Q112.36-2.72 113.28-2.28L113.28-2.28L113.28-2.28Q114.20-1.84 115.58-1.72L115.58-1.72L115.58-1.72Q116.96-1.60 118.58-1.34L118.58-1.34L118.58-1.34Q120.20-1.08 121.58-0.68L121.58-0.68L121.58-0.68Q122.96-0.28 123.88 0.80L123.88 0.80L123.88 0.80Q124.80 1.88 124.80 3.60L124.80 3.60L124.80 3.60Q124.80 6.32 122.64 7.80L122.64 7.80L122.64 7.80Q120.48 9.28 116.96 9.28L116.96 9.28L116.96 9.28Q113.36 9.28 111.10 7.84L111.10 7.84L111.10 7.84Q108.84 6.40 108.84 3.96ZM111.36 3.72L111.36 3.72L111.36 3.72Q111.36 5.36 112.86 6.36L112.86 6.36L112.86 6.36Q114.36 7.36 116.92 7.36L116.92 7.36L116.92 7.36Q119.44 7.36 120.86 6.36L120.86 6.36L120.86 6.36Q122.28 5.36 122.28 3.68L122.28 3.68L122.28 3.68Q122.28 2.88 121.88 2.28L121.88 2.28L121.88 2.28Q121.48 1.68 120.94 1.36L120.94 1.36L120.94 1.36Q120.40 1.04 119.52 0.80L119.52 0.80L119.52 0.80Q118.64 0.56 117.98 0.48L117.98 0.48L117.98 0.48Q117.32 0.40 116.32 0.32L116.32 0.32L114.92 0.16L114.92 0.16Q111.36 1.28 111.36 3.72ZM112.36-12.60L112.36-11.12L112.36-11.12Q112.36-9.04 113.54-7.72L113.54-7.72L113.54-7.72Q114.72-6.40 116.76-6.40L116.76-6.40L116.76-6.40Q118.72-6.40 119.90-7.72L119.90-7.72L119.90-7.72Q121.08-9.04 121.08-11.08L121.08-11.08L121.08-12.60L121.08-12.60Q121.08-14.60 119.90-15.90L119.90-15.90L119.90-15.90Q118.72-17.20 116.72-17.20L116.72-17.20L116.72-17.20Q114.72-17.20 113.54-15.90L113.54-15.90L113.54-15.90Q112.36-14.60 112.36-12.60L112.36-12.60ZM134.52-28L134.52-28L134.52-28Q134.52-28.48 134.78-28.86L134.78-28.86L134.78-28.86Q135.04-29.24 135.52-29.24L135.52-29.24L151.56-29.24L151.56-29.24Q152.04-29.24 152.30-28.88L152.30-28.88L152.30-28.88Q152.56-28.52 152.56-28.04L152.56-28.04L152.56-28.04Q152.56-27.52 152.30-27.14L152.30-27.14L152.30-27.14Q152.04-26.76 151.56-26.76L151.56-26.76L144.88-26.76L144.88-1.04L144.88-1.04Q144.88-0.56 144.48-0.28L144.48-0.28L144.48-0.28Q144.08 0 143.56 0L143.56 0L143.56 0Q143.00 0 142.62-0.28L142.62-0.28L142.62-0.28Q142.24-0.56 142.24-1.04L142.24-1.04L142.24-26.76L135.52-26.76L135.52-26.76Q135.08-26.76 134.80-27.12L134.80-27.12L134.80-27.12Q134.52-27.48 134.52-28ZM151-5L151-5L151-5Q151-8.08 153.38-9.28L153.38-9.28L153.38-9.28Q155.76-10.48 160.32-10.48L160.32-10.48L162.36-10.48L162.36-11.44L162.36-11.44Q162.36-13.64 161.20-15.26L161.20-15.26L161.20-15.26Q160.04-16.88 157.64-16.88L157.64-16.88L157.64-16.88Q156.04-16.88 154.74-16.30L154.74-16.30L154.74-16.30Q153.44-15.72 153.36-15.72L153.36-15.72L153.36-15.72Q152.88-15.72 152.60-16.16L152.60-16.16L152.60-16.16Q152.32-16.60 152.32-17.12L152.32-17.12L152.32-17.12Q152.32-17.88 154.04-18.52L154.04-18.52L154.04-18.52Q155.76-19.16 157.72-19.16L157.72-19.16L157.72-19.16Q161.48-19.16 163.22-16.98L163.22-16.98L163.22-16.98Q164.96-14.80 164.96-11.44L164.96-11.44L164.96-1.04L164.96-1.04Q164.96-0.60 164.60-0.30L164.60-0.30L164.60-0.30Q164.24 0 163.68 0L163.68 0L163.68 0Q163.16 0 162.82-0.30L162.82-0.30L162.82-0.30Q162.48-0.60 162.48-1.04L162.48-1.04L162.48-2.80L162.48-2.80Q159.80 0.28 156.44 0.28L156.44 0.28L156.44 0.28Q154.04 0.28 152.52-1.06L152.52-1.06L152.52-1.06Q151-2.40 151-5ZM153.60-5.24L153.60-5.24L153.60-5.24Q153.60-3.56 154.56-2.74L154.56-2.74L154.56-2.74Q155.52-1.92 157.08-1.92L157.08-1.92L157.08-1.92Q158.96-1.92 160.66-3.32L160.66-3.32L160.66-3.32Q162.36-4.72 162.36-6.12L162.36-6.12L162.36-8.68L160.68-8.68L160.68-8.68Q159.08-8.68 157.98-8.56L157.98-8.56L157.98-8.56Q156.88-8.44 155.80-8.12L155.80-8.12L155.80-8.12Q154.72-7.80 154.16-7.08L154.16-7.08L154.16-7.08Q153.60-6.36 153.60-5.24ZM170.16-1.04L170.16-1.04L170.16-29.56L170.16-29.56Q170.16-29.96 170.52-30.24L170.52-30.24L170.52-30.24Q170.88-30.52 171.44-30.52L171.44-30.52L171.44-30.52Q172.00-30.52 172.38-30.24L172.38-30.24L172.38-30.24Q172.76-29.96 172.76-29.56L172.76-29.56L172.76-1.04L172.76-1.04Q172.76-0.64 172.38-0.32L172.38-0.32L172.38-0.32Q172.00 0 171.44 0L171.44 0L171.44 0Q170.92 0 170.54-0.32L170.54-0.32L170.54-0.32Q170.16-0.64 170.16-1.04ZM177.40-7.32L177.40-7.32L177.40-11.80L177.40-11.80Q177.40-14.80 179.64-16.98L179.64-16.98L179.64-16.98Q181.88-19.16 185.04-19.16L185.04-19.16L185.04-19.16Q188.08-19.16 190.30-17.08L190.30-17.08L190.30-17.08Q192.52-15 192.52-11.88L192.52-11.88L192.52-11.88Q192.52-10.76 192.26-10.08L192.26-10.08L192.26-10.08Q192.00-9.40 191.42-9.12L191.42-9.12L191.42-9.12Q190.84-8.84 190.36-8.76L190.36-8.76L190.36-8.76Q189.88-8.68 189.04-8.68L189.04-8.68L180.00-8.68L180.00-7.20L180.00-7.20Q180.00-4.84 181.70-3.42L181.70-3.42L181.70-3.42Q183.40-2 186.08-2L186.08-2L186.08-2Q187.44-2 188.46-2.40L188.46-2.40L188.46-2.40Q189.48-2.80 190.02-3.20L190.02-3.20L190.02-3.20Q190.56-3.60 190.88-3.60L190.88-3.60L190.88-3.60Q191.32-3.60 191.66-3.18L191.66-3.18L191.66-3.18Q192.00-2.76 192.00-2.36L192.00-2.36L192.00-2.36Q192.00-1.52 190.28-0.62L190.28-0.62L190.28-0.62Q188.56 0.28 186.00 0.28L186.00 0.28L186.00 0.28Q182.20 0.28 179.80-1.82L179.80-1.82L179.80-1.82Q177.40-3.92 177.40-7.32ZM180.00-12.12L180.00-10.60L188.00-10.60L188.00-10.60Q189.20-10.60 189.60-10.86L189.60-10.86L189.60-10.86Q190.00-11.12 190.00-11.96L190.00-11.96L190.00-11.96Q190.00-13.96 188.58-15.48L188.58-15.48L188.58-15.48Q187.16-17 185.00-17L185.00-17L185.00-17Q182.92-17 181.46-15.56L181.46-15.56L181.46-15.56Q180.00-14.12 180.00-12.12L180.00-12.12ZM195.24-2.60L195.24-2.60L195.24-2.60Q195.24-3 195.52-3.40L195.52-3.40L195.52-3.40Q195.80-3.80 196.16-3.80L196.16-3.80L196.16-3.80Q196.44-3.80 197.04-3.34L197.04-3.34L197.04-3.34Q197.64-2.88 198.76-2.40L198.76-2.40L198.76-2.40Q199.88-1.92 201.44-1.92L201.44-1.92L201.44-1.92Q203.56-1.92 204.56-2.72L204.56-2.72L204.56-2.72Q205.56-3.52 205.56-4.76L205.56-4.76L205.56-4.76Q205.56-6.20 204.54-7.06L204.54-7.06L204.54-7.06Q203.52-7.92 202.08-8.32L202.08-8.32L202.08-8.32Q200.64-8.72 199.18-9.20L199.18-9.20L199.18-9.20Q197.72-9.68 196.70-10.78L196.70-10.78L196.70-10.78Q195.68-11.88 195.68-13.72L195.68-13.72L195.68-13.72Q195.68-15.92 197.26-17.54L197.26-17.54L197.26-17.54Q198.84-19.16 202.00-19.16L202.00-19.16L202.00-19.16Q203.96-19.16 205.66-18.54L205.66-18.54L205.66-18.54Q207.36-17.92 207.36-17.20L207.36-17.20L207.36-17.20Q207.36-16.80 207.04-16.32L207.04-16.32L207.04-16.32Q206.72-15.84 206.28-15.84L206.28-15.84L206.28-15.84Q206.16-15.84 204.80-16.40L204.80-16.40L204.80-16.40Q203.44-16.96 202.04-16.96L202.04-16.96L202.04-16.96Q200.04-16.96 199.04-16L199.04-16L199.04-16Q198.04-15.04 198.04-13.84L198.04-13.84L198.04-13.84Q198.04-12.60 199.06-11.88L199.06-11.88L199.06-11.88Q200.08-11.16 201.54-10.78L201.54-10.78L201.54-10.78Q203.00-10.40 204.46-9.90L204.46-9.90L204.46-9.90Q205.92-9.40 206.94-8.14L206.94-8.14L206.94-8.14Q207.96-6.88 207.96-4.88L207.96-4.88L207.96-4.88Q207.96-2.48 206.26-1.10L206.26-1.10L206.26-1.10Q204.56 0.28 201.52 0.28L201.52 0.28L201.52 0.28Q198.88 0.28 197.06-0.66L197.06-0.66L197.06-0.66Q195.24-1.60 195.24-2.60Z" fill="#000000"></path></g></g><style>text {
  font-size: 64px;
  font-family: Arial Black;
  dominant-baseline: central;
  text-anchor: middle;
}</style></svg>