<svg width="366.629931640625px" height="111.226220703125px" xmlns="http://www.w3.org/2000/svg" viewBox="66.6850341796875 19.386889648437503 366.629931640625 111.226220703125" style="background: none;" preserveAspectRatio="xMidYMid"><defs><filter id="editing-hole" x="-100%" y="-100%" width="300%" height="300%"><feFlood flood-color="none" result="black"></feFlood><feMorphology operator="dilate" radius="2" in="SourceGraphic" result="erode"></feMorphology><feGaussianBlur in="erode" stdDeviation="4" result="blur"></feGaussianBlur><feOffset in="blur" dx="2" dy="2" result="offset"></feOffset><feComposite operator="atop" in="offset" in2="black" result="merge"></feComposite><feComposite operator="in" in="merge" in2="SourceGraphic" result="inner-shadow"></feComposite></filter></defs><g filter="url(#editing-hole)"><g transform="translate(121.86000680923462, 92.69156265258789)"><path d="M11.68-7.84L9.56-7.84L9.56-0.16L9.56-0.16Q9.12-0.04 8.18 0.08L8.18 0.08L8.18 0.08Q7.24 0.20 6.32 0.20L6.32 0.20L6.32 0.20Q5.40 0.20 4.70 0.06L4.70 0.06L4.70 0.06Q4-0.08 3.54-0.44L3.54-0.44L3.54-0.44Q3.08-0.80 2.84-1.44L2.84-1.44L2.84-1.44Q2.60-2.08 2.60-3.12L2.60-3.12L2.60-21.96L2.60-21.96Q2.60-22.80 3.06-23.26L3.06-23.26L3.06-23.26Q3.52-23.72 4.32-24L4.32-24L4.32-24Q5.68-24.48 7.48-24.70L7.48-24.70L7.48-24.70Q9.28-24.92 11.32-24.92L11.32-24.92L11.32-24.92Q16.84-24.92 19.64-22.60L19.64-22.60L19.64-22.60Q22.44-20.28 22.44-16.32L22.44-16.32L22.44-16.32Q22.44-13.84 21.16-12.08L21.16-12.08L21.16-12.08Q19.88-10.32 18.12-9.36L18.12-9.36L18.12-9.36Q19.56-7.40 20.96-5.68L20.96-5.68L20.96-5.68Q22.36-3.96 23.16-2.56L23.16-2.56L23.16-2.56Q22.76-1.16 21.70-0.42L21.70-0.42L21.70-0.42Q20.64 0.32 19.32 0.32L19.32 0.32L19.32 0.32Q18.44 0.32 17.80 0.12L17.80 0.12L17.80 0.12Q17.16-0.08 16.68-0.44L16.68-0.44L16.68-0.44Q16.20-0.80 15.80-1.32L15.80-1.32L15.80-1.32Q15.40-1.84 15.04-2.44L15.04-2.44L11.68-7.84ZM9.52-13.16L12.08-13.16L12.08-13.16Q13.60-13.16 14.48-13.94L14.48-13.94L14.48-13.94Q15.36-14.72 15.36-16.24L15.36-16.24L15.36-16.24Q15.36-17.76 14.38-18.54L14.38-18.54L14.38-18.54Q13.40-19.32 11.28-19.32L11.28-19.32L11.28-19.32Q10.68-19.32 10.32-19.28L10.32-19.28L10.32-19.28Q9.96-19.24 9.52-19.16L9.52-19.16L9.52-13.16ZM26.12-7.72L26.12-19.16L26.12-19.16Q26.52-19.28 27.38-19.40L27.38-19.40L27.38-19.40Q28.24-19.52 29.16-19.52L29.16-19.52L29.16-19.52Q30.04-19.52 30.74-19.40L30.74-19.40L30.74-19.40Q31.44-19.28 31.92-18.92L31.92-18.92L31.92-18.92Q32.40-18.56 32.66-17.94L32.66-17.94L32.66-17.94Q32.92-17.32 32.92-16.32L32.92-16.32L32.92-7.72L32.92-7.72Q32.92-6.08 33.72-5.38L33.72-5.38L33.72-5.38Q34.52-4.68 36.04-4.68L36.04-4.68L36.04-4.68Q36.96-4.68 37.54-4.84L37.54-4.84L37.54-4.84Q38.12-5 38.44-5.16L38.44-5.16L38.44-19.16L38.44-19.16Q38.84-19.28 39.70-19.40L39.70-19.40L39.70-19.40Q40.56-19.52 41.48-19.52L41.48-19.52L41.48-19.52Q42.36-19.52 43.06-19.40L43.06-19.40L43.06-19.40Q43.76-19.28 44.24-18.92L44.24-18.92L44.24-18.92Q44.72-18.56 44.98-17.94L44.98-17.94L44.98-17.94Q45.24-17.32 45.24-16.32L45.24-16.32L45.24-4.16L45.24-4.16Q45.24-2.16 43.56-1.16L43.56-1.16L43.56-1.16Q42.16-0.28 40.22 0.18L40.22 0.18L40.22 0.18Q38.28 0.64 36 0.64L36 0.64L36 0.64Q33.84 0.64 32.02 0.16L32.02 0.16L32.02 0.16Q30.20-0.32 28.88-1.32L28.88-1.32L28.88-1.32Q27.56-2.32 26.84-3.90L26.84-3.90L26.84-3.90Q26.12-5.48 26.12-7.72L26.12-7.72ZM61.72-2.88L61.72-12.32L61.72-12.32Q61.72-13.56 61.02-14.14L61.02-14.14L61.02-14.14Q60.32-14.72 59.12-14.72L59.12-14.72L59.12-14.72Q58.32-14.72 57.54-14.52L57.54-14.52L57.54-14.52Q56.76-14.32 56.20-13.92L56.20-13.92L56.20-0.04L56.20-0.04Q55.80 0.08 54.94 0.20L54.94 0.20L54.94 0.20Q54.08 0.32 53.16 0.32L53.16 0.32L53.16 0.32Q52.28 0.32 51.58 0.20L51.58 0.20L51.58 0.20Q50.88 0.08 50.40-0.28L50.40-0.28L50.40-0.28Q49.92-0.64 49.66-1.26L49.66-1.26L49.66-1.26Q49.40-1.88 49.40-2.88L49.40-2.88L49.40-14.88L49.40-14.88Q49.40-15.96 49.86-16.64L49.86-16.64L49.86-16.64Q50.32-17.32 51.12-17.88L51.12-17.88L51.12-17.88Q52.48-18.84 54.54-19.44L54.54-19.44L54.54-19.44Q56.60-20.04 59.12-20.04L59.12-20.04L59.12-20.04Q63.64-20.04 66.08-18.06L66.08-18.06L66.08-18.06Q68.52-16.08 68.52-12.56L68.52-12.56L68.52-0.04L68.52-0.04Q68.12 0.08 67.26 0.20L67.26 0.20L67.26 0.20Q66.40 0.32 65.48 0.32L65.48 0.32L65.48 0.32Q64.60 0.32 63.90 0.20L63.90 0.20L63.90 0.20Q63.20 0.08 62.72-0.28L62.72-0.28L62.72-0.28Q62.24-0.64 61.98-1.26L61.98-1.26L61.98-1.26Q61.72-1.88 61.72-2.88L61.72-2.88ZM85.04-2.88L85.04-12.32L85.04-12.32Q85.04-13.56 84.34-14.14L84.34-14.14L84.34-14.14Q83.64-14.72 82.44-14.72L82.44-14.72L82.44-14.72Q81.64-14.72 80.86-14.52L80.86-14.52L80.86-14.52Q80.08-14.32 79.52-13.92L79.52-13.92L79.52-0.04L79.52-0.04Q79.12 0.08 78.26 0.20L78.26 0.20L78.26 0.20Q77.40 0.32 76.48 0.32L76.48 0.32L76.48 0.32Q75.60 0.32 74.90 0.20L74.90 0.20L74.90 0.20Q74.20 0.08 73.72-0.28L73.72-0.28L73.72-0.28Q73.24-0.64 72.98-1.26L72.98-1.26L72.98-1.26Q72.72-1.88 72.72-2.88L72.72-2.88L72.72-14.88L72.72-14.88Q72.72-15.96 73.18-16.64L73.18-16.64L73.18-16.64Q73.64-17.32 74.44-17.88L74.44-17.88L74.44-17.88Q75.80-18.84 77.86-19.44L77.86-19.44L77.86-19.44Q79.92-20.04 82.44-20.04L82.44-20.04L82.44-20.04Q86.96-20.04 89.40-18.06L89.40-18.06L89.40-18.06Q91.84-16.08 91.84-12.56L91.84-12.56L91.84-0.04L91.84-0.04Q91.44 0.08 90.58 0.20L90.58 0.20L90.58 0.20Q89.72 0.32 88.80 0.32L88.80 0.32L88.80 0.32Q87.92 0.32 87.22 0.20L87.22 0.20L87.22 0.20Q86.52 0.08 86.04-0.28L86.04-0.28L86.04-0.28Q85.56-0.64 85.30-1.26L85.30-1.26L85.30-1.26Q85.04-1.88 85.04-2.88L85.04-2.88ZM95.88-24.84L95.88-24.84L95.88-24.84Q95.88-26.36 96.90-27.40L96.90-27.40L96.90-27.40Q97.92-28.44 99.60-28.44L99.60-28.44L99.60-28.44Q101.28-28.44 102.30-27.40L102.30-27.40L102.30-27.40Q103.32-26.36 103.32-24.84L103.32-24.84L103.32-24.84Q103.32-23.32 102.30-22.28L102.30-22.28L102.30-22.28Q101.28-21.24 99.60-21.24L99.60-21.24L99.60-21.24Q97.92-21.24 96.90-22.28L96.90-22.28L96.90-22.28Q95.88-23.32 95.88-24.84ZM103.00-16.32L103.00-0.04L103.00-0.04Q102.56 0.04 101.70 0.18L101.70 0.18L101.70 0.18Q100.84 0.32 99.96 0.32L99.96 0.32L99.96 0.32Q99.08 0.32 98.38 0.20L98.38 0.20L98.38 0.20Q97.68 0.08 97.20-0.28L97.20-0.28L97.20-0.28Q96.72-0.64 96.46-1.26L96.46-1.26L96.46-1.26Q96.20-1.88 96.20-2.88L96.20-2.88L96.20-19.16L96.20-19.16Q96.64-19.24 97.50-19.38L97.50-19.38L97.50-19.38Q98.36-19.52 99.24-19.52L99.24-19.52L99.24-19.52Q100.12-19.52 100.82-19.40L100.82-19.40L100.82-19.40Q101.52-19.28 102.00-18.92L102.00-18.92L102.00-18.92Q102.48-18.56 102.74-17.94L102.74-17.94L102.74-17.94Q103.00-17.32 103.00-16.32L103.00-16.32ZM119.64-2.88L119.64-12.32L119.64-12.32Q119.64-13.56 118.94-14.14L118.94-14.14L118.94-14.14Q118.24-14.72 117.04-14.72L117.04-14.72L117.04-14.72Q116.24-14.72 115.46-14.52L115.46-14.52L115.46-14.52Q114.68-14.32 114.12-13.92L114.12-13.92L114.12-0.04L114.12-0.04Q113.72 0.08 112.86 0.20L112.86 0.20L112.86 0.20Q112.00 0.32 111.08 0.32L111.08 0.32L111.08 0.32Q110.20 0.32 109.50 0.20L109.50 0.20L109.50 0.20Q108.80 0.08 108.32-0.28L108.32-0.28L108.32-0.28Q107.84-0.64 107.58-1.26L107.58-1.26L107.58-1.26Q107.32-1.88 107.32-2.88L107.32-2.88L107.32-14.88L107.32-14.88Q107.32-15.96 107.78-16.64L107.78-16.64L107.78-16.64Q108.24-17.32 109.04-17.88L109.04-17.88L109.04-17.88Q110.40-18.84 112.46-19.44L112.46-19.44L112.46-19.44Q114.52-20.04 117.04-20.04L117.04-20.04L117.04-20.04Q121.56-20.04 124.00-18.06L124.00-18.06L124.00-18.06Q126.44-16.08 126.44-12.56L126.44-12.56L126.44-0.04L126.44-0.04Q126.04 0.08 125.18 0.20L125.18 0.20L125.18 0.20Q124.32 0.32 123.40 0.32L123.40 0.32L123.40 0.32Q122.52 0.32 121.82 0.20L121.82 0.20L121.82 0.20Q121.12 0.08 120.64-0.28L120.64-0.28L120.64-0.28Q120.16-0.64 119.90-1.26L119.90-1.26L119.90-1.26Q119.64-1.88 119.64-2.88L119.64-2.88ZM140.12-20.04L140.12-20.04L140.12-20.04Q142.40-20.04 144.26-19.46L144.26-19.46L144.26-19.46Q146.12-18.88 147.40-17.96L147.40-17.96L147.40-17.96Q148.20-17.40 148.66-16.72L148.66-16.72L148.66-16.72Q149.12-16.04 149.12-14.96L149.12-14.96L149.12-0.96L149.12-0.96Q149.12 1.16 148.32 2.70L148.32 2.70L148.32 2.70Q147.52 4.24 146.14 5.26L146.14 5.26L146.14 5.26Q144.76 6.28 142.90 6.76L142.90 6.76L142.90 6.76Q141.04 7.24 138.92 7.24L138.92 7.24L138.92 7.24Q135.28 7.24 133.20 6.26L133.20 6.26L133.20 6.26Q131.12 5.28 131.12 3.08L131.12 3.08L131.12 3.08Q131.12 2.16 131.50 1.46L131.50 1.46L131.50 1.46Q131.88 0.76 132.36 0.40L132.36 0.40L132.36 0.40Q133.52 1.04 134.98 1.48L134.98 1.48L134.98 1.48Q136.44 1.92 138 1.92L138 1.92L138 1.92Q140.16 1.92 141.44 1.20L141.44 1.20L141.44 1.20Q142.72 0.48 142.72-1.12L142.72-1.12L142.72-1.76L142.72-1.76Q141.08-1.04 138.72-1.04L138.72-1.04L138.72-1.04Q136.92-1.04 135.30-1.58L135.30-1.58L135.30-1.58Q133.68-2.12 132.46-3.26L132.46-3.26L132.46-3.26Q131.24-4.40 130.50-6.20L130.50-6.20L130.50-6.20Q129.76-8 129.76-10.48L129.76-10.48L129.76-10.48Q129.76-12.92 130.54-14.72L130.54-14.72L130.54-14.72Q131.32-16.52 132.70-17.70L132.70-17.70L132.70-17.70Q134.08-18.88 135.98-19.46L135.98-19.46L135.98-19.46Q137.88-20.04 140.12-20.04ZM142.60-6.88L142.60-14.24L142.60-14.24Q142.32-14.40 141.78-14.56L141.78-14.56L141.78-14.56Q141.24-14.72 140.44-14.72L140.44-14.72L140.44-14.72Q138.48-14.72 137.50-13.62L137.50-13.62L137.50-13.62Q136.52-12.52 136.52-10.48L136.52-10.48L136.52-10.48Q136.52-8.16 137.50-7.14L137.50-7.14L137.50-7.14Q138.48-6.12 140-6.12L140-6.12L140-6.12Q141.64-6.12 142.60-6.88L142.60-6.88ZM166.72-18.64L160.72-18.64L160.72-18.64Q160.44-19.08 160.20-19.84L160.20-19.84L160.20-19.84Q159.96-20.60 159.96-21.44L159.96-21.44L159.96-21.44Q159.96-23 160.66-23.68L160.66-23.68L160.66-23.68Q161.36-24.36 162.48-24.36L162.48-24.36L179.92-24.36L179.92-24.36Q180.20-23.92 180.44-23.16L180.44-23.16L180.44-23.16Q180.68-22.40 180.68-21.56L180.68-21.56L180.68-21.56Q180.68-20 179.98-19.32L179.98-19.32L179.98-19.32Q179.28-18.64 178.16-18.64L178.16-18.64L173.72-18.64L173.72-0.16L173.72-0.16Q173.28-0.04 172.34 0.08L172.34 0.08L172.34 0.08Q171.40 0.20 170.48 0.20L170.48 0.20L170.48 0.20Q169.56 0.20 168.86 0.06L168.86 0.06L168.86 0.06Q168.16-0.08 167.68-0.44L167.68-0.44L167.68-0.44Q167.20-0.80 166.96-1.44L166.96-1.44L166.96-1.44Q166.72-2.08 166.72-3.12L166.72-3.12L166.72-18.64ZM190.68-4.32L190.68-4.32L190.68-4.32Q191.36-4.32 192.18-4.46L192.18-4.46L192.18-4.46Q193.00-4.60 193.40-4.84L193.40-4.84L193.40-8.04L190.52-7.80L190.52-7.80Q189.40-7.72 188.68-7.32L188.68-7.32L188.68-7.32Q187.96-6.92 187.96-6.12L187.96-6.12L187.96-6.12Q187.96-5.32 188.58-4.82L188.58-4.82L188.58-4.82Q189.20-4.32 190.68-4.32ZM190.36-20.04L190.36-20.04L190.36-20.04Q192.52-20.04 194.30-19.60L194.30-19.60L194.30-19.60Q196.08-19.16 197.34-18.26L197.34-18.26L197.34-18.26Q198.60-17.36 199.28-15.98L199.28-15.98L199.28-15.98Q199.96-14.60 199.96-12.72L199.96-12.72L199.96-3.76L199.96-3.76Q199.96-2.72 199.38-2.06L199.38-2.06L199.38-2.06Q198.80-1.40 198.00-0.92L198.00-0.92L198.00-0.92Q195.40 0.64 190.68 0.64L190.68 0.64L190.68 0.64Q188.56 0.64 186.86 0.24L186.86 0.24L186.86 0.24Q185.16-0.16 183.94-0.96L183.94-0.96L183.94-0.96Q182.72-1.76 182.06-3L182.06-3L182.06-3Q181.40-4.24 181.40-5.88L181.40-5.88L181.40-5.88Q181.40-8.64 183.04-10.12L183.04-10.12L183.04-10.12Q184.68-11.60 188.12-11.96L188.12-11.96L193.36-12.52L193.36-12.80L193.36-12.80Q193.36-13.96 192.34-14.46L192.34-14.46L192.34-14.46Q191.32-14.96 189.40-14.96L189.40-14.96L189.40-14.96Q187.88-14.96 186.44-14.64L186.44-14.64L186.44-14.64Q185.00-14.32 183.84-13.84L183.84-13.84L183.84-13.84Q183.32-14.20 182.96-14.94L182.96-14.94L182.96-14.94Q182.60-15.68 182.60-16.48L182.60-16.48L182.60-16.48Q182.60-17.52 183.10-18.14L183.10-18.14L183.10-18.14Q183.60-18.76 184.64-19.20L184.64-19.20L184.64-19.20Q185.80-19.64 187.38-19.84L187.38-19.84L187.38-19.84Q188.96-20.04 190.36-20.04ZM211.04-23.24L211.04-0.04L211.04-0.04Q210.60 0.04 209.74 0.18L209.74 0.18L209.74 0.18Q208.88 0.32 208.00 0.32L208.00 0.32L208.00 0.32Q207.12 0.32 206.42 0.20L206.42 0.20L206.42 0.20Q205.72 0.08 205.24-0.28L205.24-0.28L205.24-0.28Q204.76-0.64 204.50-1.26L204.50-1.26L204.50-1.26Q204.24-1.88 204.24-2.88L204.24-2.88L204.24-26.08L204.24-26.08Q204.68-26.16 205.54-26.30L205.54-26.30L205.54-26.30Q206.40-26.44 207.28-26.44L207.28-26.44L207.28-26.44Q208.16-26.44 208.86-26.32L208.86-26.32L208.86-26.32Q209.56-26.20 210.04-25.84L210.04-25.84L210.04-25.84Q210.52-25.48 210.78-24.86L210.78-24.86L210.78-24.86Q211.04-24.24 211.04-23.24L211.04-23.24ZM225.60 0.64L225.60 0.64L225.60 0.64Q223.24 0.64 221.22-0.02L221.22-0.02L221.22-0.02Q219.20-0.68 217.70-2L217.70-2L217.70-2Q216.20-3.32 215.34-5.32L215.34-5.32L215.34-5.32Q214.48-7.32 214.48-10L214.48-10L214.48-10Q214.48-12.64 215.34-14.54L215.34-14.54L215.34-14.54Q216.20-16.44 217.60-17.66L217.60-17.66L217.60-17.66Q219-18.88 220.80-19.46L220.80-19.46L220.80-19.46Q222.60-20.04 224.48-20.04L224.48-20.04L224.48-20.04Q226.60-20.04 228.34-19.40L228.34-19.40L228.34-19.40Q230.08-18.76 231.34-17.64L231.34-17.64L231.34-17.64Q232.60-16.52 233.30-14.96L233.30-14.96L233.30-14.96Q234-13.40 234-11.56L234-11.56L234-11.56Q234-10.20 233.24-9.48L233.24-9.48L233.24-9.48Q232.48-8.76 231.12-8.56L231.12-8.56L221.24-7.08L221.24-7.08Q221.68-5.76 223.04-5.10L223.04-5.10L223.04-5.10Q224.40-4.44 226.16-4.44L226.16-4.44L226.16-4.44Q227.80-4.44 229.26-4.86L229.26-4.86L229.26-4.86Q230.72-5.28 231.64-5.84L231.64-5.84L231.64-5.84Q232.28-5.44 232.72-4.72L232.72-4.72L232.72-4.72Q233.16-4 233.16-3.20L233.16-3.20L233.16-3.20Q233.16-1.40 231.48-0.52L231.48-0.52L231.48-0.52Q230.20 0.16 228.60 0.40L228.60 0.40L228.60 0.40Q227 0.64 225.60 0.64ZM224.48-15.08L224.48-15.08L224.48-15.08Q223.52-15.08 222.82-14.76L222.82-14.76L222.82-14.76Q222.12-14.44 221.68-13.94L221.68-13.94L221.68-13.94Q221.24-13.44 221.02-12.82L221.02-12.82L221.02-12.82Q220.80-12.20 220.76-11.56L220.76-11.56L227.60-12.68L227.60-12.68Q227.48-13.48 226.72-14.28L226.72-14.28L226.72-14.28Q225.96-15.08 224.48-15.08ZM253.68-5.80L253.68-5.80L253.68-5.80Q253.68-2.76 251.40-1.04L251.40-1.04L251.40-1.04Q249.12 0.68 244.68 0.68L244.68 0.68L244.68 0.68Q243.00 0.68 241.56 0.44L241.56 0.44L241.56 0.44Q240.12 0.20 239.10-0.30L239.10-0.30L239.10-0.30Q238.08-0.80 237.50-1.56L237.50-1.56L237.50-1.56Q236.92-2.32 236.92-3.36L236.92-3.36L236.92-3.36Q236.92-4.32 237.32-4.98L237.32-4.98L237.32-4.98Q237.72-5.64 238.28-6.08L238.28-6.08L238.28-6.08Q239.44-5.44 240.94-4.94L240.94-4.94L240.94-4.94Q242.44-4.44 244.40-4.44L244.40-4.44L244.40-4.44Q245.64-4.44 246.30-4.80L246.30-4.80L246.30-4.80Q246.96-5.16 246.96-5.76L246.96-5.76L246.96-5.76Q246.96-6.32 246.48-6.64L246.48-6.64L246.48-6.64Q246.00-6.96 244.88-7.16L244.88-7.16L243.68-7.40L243.68-7.40Q240.20-8.08 238.50-9.54L238.50-9.54L238.50-9.54Q236.80-11 236.80-13.72L236.80-13.72L236.80-13.72Q236.80-15.20 237.44-16.40L237.44-16.40L237.44-16.40Q238.08-17.60 239.24-18.40L239.24-18.40L239.24-18.40Q240.40-19.20 242.02-19.64L242.02-19.64L242.02-19.64Q243.64-20.08 245.60-20.08L245.60-20.08L245.60-20.08Q247.08-20.08 248.38-19.86L248.38-19.86L248.38-19.86Q249.68-19.64 250.64-19.20L250.64-19.20L250.64-19.20Q251.60-18.76 252.16-18.06L252.16-18.06L252.16-18.06Q252.72-17.36 252.72-16.40L252.72-16.40L252.72-16.40Q252.72-15.48 252.38-14.82L252.38-14.82L252.38-14.82Q252.04-14.16 251.52-13.72L251.52-13.72L251.52-13.72Q251.20-13.92 250.56-14.14L250.56-14.14L250.56-14.14Q249.92-14.36 249.16-14.54L249.16-14.54L249.16-14.54Q248.40-14.72 247.62-14.84L247.62-14.84L247.62-14.84Q246.84-14.96 246.20-14.96L246.20-14.96L246.20-14.96Q244.88-14.96 244.16-14.66L244.16-14.66L244.16-14.66Q243.44-14.36 243.44-13.72L243.44-13.72L243.44-13.72Q243.44-13.28 243.84-13L243.84-13L243.84-13Q244.24-12.72 245.36-12.48L245.36-12.48L246.60-12.20L246.60-12.20Q250.44-11.32 252.06-9.78L252.06-9.78L252.06-9.78Q253.68-8.24 253.68-5.80Z" fill="#000000"></path></g></g><style>text {
  font-size: 64px;
  font-family: Arial Black;
  dominant-baseline: central;
  text-anchor: middle;
}</style></svg>